<?xml version="1.0" encoding="utf-8"?>
<!-- Generator: Adobe Illustrator 27.1.1, SVG Export Plug-In . SVG Version: 6.00 Build 0)  -->
<svg version="1.1" xmlns="http://www.w3.org/2000/svg" xmlns:xlink="http://www.w3.org/1999/xlink" x="0px" y="0px"
	 viewBox="0 0 500 500" style="enable-background:new 0 0 500 500;" xml:space="preserve">
<style type="text/css">
	.st0{fill:#FF592A;}
	.st1{opacity:0.75;fill:#FF592A;}
	.st2{opacity:0.5;fill:#FF592A;}
	.st3{fill:#FFFFFF;}
</style>
<g id="Calque_2">
</g>
<g id="Calque_1">
	<rect x="151.7" y="132.7" class="st0" width="106.6" height="106.6"/>
	<rect x="151.7" y="239.3" class="st1" width="106.6" height="106.6"/>
	<rect x="45.11" y="239.3" class="st2" width="106.6" height="106.6"/>
	<g>
		<path class="st3" d="M296.34,182.28v-46.9h20.23c2.95,0,5.57,0.67,7.87,2.01c2.3,1.34,4.13,3.17,5.49,5.49
			c1.36,2.32,2.04,4.94,2.04,7.84c0,3.04-0.68,5.75-2.04,8.14c-1.36,2.39-3.19,4.28-5.49,5.66c-2.3,1.38-4.92,2.08-7.87,2.08h-8.84
			v15.68H296.34z M307.53,156.62h7.44c0.98,0,1.88-0.24,2.68-0.74c0.8-0.49,1.45-1.16,1.94-2.01c0.49-0.85,0.74-1.83,0.74-2.95
			c0-1.16-0.25-2.14-0.74-2.95c-0.49-0.8-1.14-1.43-1.94-1.88c-0.8-0.45-1.7-0.67-2.68-0.67h-7.44V156.62z"/>
		<path class="st3" d="M352.02,182.88c-2.99,0-5.66-0.79-8.01-2.38c-2.35-1.58-4.21-3.77-5.59-6.57c-1.38-2.79-2.08-5.95-2.08-9.48
			c0-3.62,0.69-6.81,2.08-9.58c1.38-2.77,3.28-4.95,5.7-6.53c2.41-1.58,5.16-2.38,8.24-2.38c1.7,0,3.25,0.25,4.66,0.74
			c1.41,0.49,2.65,1.17,3.72,2.04c1.07,0.87,1.99,1.88,2.75,3.02s1.32,2.36,1.68,3.65l-2.21-0.27v-8.44h10.65v35.58h-10.85v-8.58
			l2.41-0.07c-0.36,1.25-0.94,2.44-1.74,3.55c-0.8,1.12-1.79,2.1-2.95,2.95c-1.16,0.85-2.46,1.52-3.89,2.01
			C355.15,182.64,353.63,182.88,352.02,182.88z M354.97,173.84c1.65,0,3.08-0.38,4.29-1.14c1.21-0.76,2.14-1.84,2.81-3.25
			c0.67-1.41,1-3.07,1-4.99c0-1.92-0.33-3.58-1-4.99c-0.67-1.41-1.61-2.5-2.81-3.28c-1.21-0.78-2.64-1.17-4.29-1.17
			c-1.61,0-3,0.39-4.19,1.17c-1.18,0.78-2.11,1.88-2.78,3.28c-0.67,1.41-1,3.07-1,4.99c0,1.92,0.33,3.58,1,4.99
			c0.67,1.41,1.6,2.49,2.78,3.25C351.96,173.46,353.36,173.84,354.97,173.84z"/>
		<path class="st3" d="M394.5,183.02c-2.64,0-4.88-0.57-6.73-1.71c-1.85-1.14-3.28-2.78-4.29-4.92s-1.51-4.71-1.51-7.71V146.7h10.79
			v20.5c0,1.43,0.22,2.66,0.67,3.69c0.45,1.03,1.12,1.82,2.01,2.38c0.89,0.56,1.96,0.84,3.22,0.84c0.94,0,1.8-0.16,2.58-0.47
			c0.78-0.31,1.45-0.75,2.01-1.31c0.56-0.56,0.99-1.21,1.31-1.94c0.31-0.74,0.47-1.55,0.47-2.45V146.7h10.79v35.58h-10.12l-0.47-7.3
			l2.01-0.8c-0.54,1.7-1.43,3.21-2.68,4.52c-1.25,1.32-2.75,2.37-4.49,3.15C398.32,182.63,396.46,183.02,394.5,183.02z"/>
		<path class="st3" d="M425.45,182.28V132.7h10.72v49.58H425.45z"/>
		<path class="st3" d="M312.16,263.35c-3.93,0-7.35-0.79-10.25-2.38c-2.9-1.58-5.16-3.75-6.77-6.5c-1.61-2.75-2.41-5.88-2.41-9.41
			c0-2.72,0.45-5.23,1.34-7.5c0.89-2.28,2.14-4.25,3.75-5.93c1.61-1.67,3.52-2.97,5.73-3.89c2.21-0.92,4.63-1.37,7.27-1.37
			c2.5,0,4.79,0.45,6.87,1.34c2.08,0.89,3.88,2.14,5.39,3.75c1.52,1.61,2.68,3.51,3.48,5.7c0.8,2.19,1.16,4.58,1.07,7.17l-0.07,2.88
			h-28.34l-1.54-6.03h21.17l-1.14,1.27v-1.34c-0.09-1.12-0.43-2.11-1.04-2.98c-0.6-0.87-1.4-1.55-2.38-2.04
			c-0.98-0.49-2.1-0.74-3.35-0.74c-1.74,0-3.23,0.35-4.46,1.04c-1.23,0.69-2.16,1.7-2.78,3.01c-0.63,1.32-0.94,2.94-0.94,4.86
			c0,1.97,0.41,3.67,1.24,5.13c0.83,1.45,2.03,2.58,3.62,3.38c1.58,0.8,3.47,1.21,5.66,1.21c1.52,0,2.87-0.22,4.05-0.67
			c1.18-0.45,2.47-1.21,3.85-2.28l5.03,7.1c-1.39,1.21-2.86,2.19-4.42,2.95c-1.56,0.76-3.16,1.33-4.79,1.71
			C315.38,263.16,313.76,263.35,312.16,263.35z"/>
		<path class="st3" d="M331.12,236.48v-9.38h23.92v9.38H331.12z M337.41,262.68v-44.56h10.72v44.56H337.41z"/>
		<path class="st3" d="M296.34,343.08v-46.9h11.39v46.9H296.34z M301.64,306.23v-10.05h27v10.05H301.64z M301.64,325.12v-9.51h24.25
			v9.51H301.64z"/>
		<path class="st3" d="M342.57,300.47c-2.01,0-3.58-0.48-4.72-1.44c-1.14-0.96-1.71-2.33-1.71-4.12c0-1.61,0.58-2.92,1.74-3.95
			c1.16-1.03,2.72-1.54,4.69-1.54c2.01,0,3.57,0.48,4.69,1.44c1.12,0.96,1.67,2.31,1.67,4.05c0,1.65-0.57,2.99-1.71,4.02
			C346.09,299.96,344.54,300.47,342.57,300.47z M337.21,343.08V307.5h10.72v35.58H337.21z"/>
		<path class="st3" d="M358.05,343.08V293.5h10.72v49.58H358.05z"/>
		<path class="st3" d="M390.34,343.75c-3.48,0-6.56-0.56-9.21-1.67s-4.77-2.61-6.33-4.49l6.5-5.63c1.38,1.38,2.95,2.4,4.69,3.05
			c1.74,0.65,3.39,0.97,4.96,0.97c0.62,0,1.18-0.07,1.68-0.2c0.49-0.13,0.9-0.32,1.24-0.57s0.59-0.54,0.77-0.87
			c0.18-0.33,0.27-0.73,0.27-1.17c0-0.89-0.4-1.58-1.21-2.08c-0.4-0.22-1.07-0.49-2.01-0.8c-0.94-0.31-2.14-0.67-3.62-1.07
			c-2.1-0.54-3.92-1.17-5.46-1.91s-2.8-1.6-3.79-2.58c-0.89-0.94-1.59-1.98-2.08-3.12c-0.49-1.14-0.74-2.42-0.74-3.85
			c0-1.65,0.39-3.15,1.17-4.49c0.78-1.34,1.83-2.5,3.15-3.48c1.32-0.98,2.84-1.73,4.56-2.25c1.72-0.51,3.5-0.77,5.33-0.77
			c1.96,0,3.84,0.22,5.63,0.67c1.79,0.45,3.45,1.07,4.99,1.88c1.54,0.8,2.92,1.76,4.12,2.88l-5.63,6.3
			c-0.8-0.76-1.71-1.44-2.71-2.04c-1-0.6-2.04-1.08-3.12-1.44c-1.07-0.36-2.06-0.54-2.95-0.54c-0.67,0-1.26,0.06-1.78,0.17
			c-0.51,0.11-0.95,0.29-1.31,0.54c-0.36,0.25-0.63,0.54-0.8,0.87c-0.18,0.33-0.27,0.73-0.27,1.17c0,0.45,0.12,0.87,0.37,1.27
			s0.59,0.74,1.04,1c0.45,0.27,1.16,0.57,2.14,0.9s2.32,0.75,4.02,1.24c2.1,0.58,3.91,1.23,5.43,1.94c1.52,0.71,2.72,1.56,3.62,2.55
			c0.71,0.76,1.25,1.64,1.61,2.65c0.36,1,0.54,2.09,0.54,3.25c0,2.28-0.64,4.3-1.91,6.06s-3.03,3.15-5.26,4.15
			C395.75,343.25,393.2,343.75,390.34,343.75z"/>
	</g>
</g>
</svg>
